<?xml version="1.0" standalone="no"?>
<!DOCTYPE svg PUBLIC "-//W3C//DTD SVG 20010904//EN"
 "http://www.w3.org/TR/2001/REC-SVG-20010904/DTD/svg10.dtd">
<svg version="1.0" xmlns="http://www.w3.org/2000/svg"
 width="512.000000pt" height="512.000000pt" viewBox="0 0 512.000000 512.000000"
 preserveAspectRatio="xMidYMid meet">

<g transform="translate(0.000000,512.000000) scale(0.100000,-0.100000)"
fill="#000000" stroke="none">
<path d="M3948 5095 c-3 -3 -32 -12 -64 -20 -155 -40 -276 -109 -394 -225 -48
-47 -101 -106 -118 -131 -64 -95 -114 -216 -142 -339 -14 -66 -8 -303 9 -370
7 -25 15 -57 18 -72 l5 -28 -68 -1 c-38 0 -89 -4 -114 -9 -25 -4 -61 -11 -82
-15 -34 -7 -37 -5 -53 26 -10 18 -58 74 -109 125 -94 94 -142 124 -251 155
-64 18 -336 19 -460 1 -199 -28 -279 -44 -372 -72 -54 -16 -99 -27 -100 -26
-2 1 -7 43 -12 92 -23 208 -120 386 -285 518 -60 48 -155 101 -211 118 -108
33 -149 39 -255 39 -106 0 -147 -6 -255 -39 -77 -24 -213 -109 -281 -176 -84
-85 -161 -220 -195 -343 -38 -134 -28 -332 21 -458 80 -206 239 -365 445 -445
68 -27 145 -41 235 -45 74 -3 96 -7 98 -18 2 -8 -6 -44 -18 -79 -12 -34 -30
-124 -41 -198 -17 -114 -20 -170 -16 -360 2 -136 8 -236 15 -253 13 -31 55
-53 128 -66 25 -5 48 -11 51 -15 4 -3 -21 -30 -53 -60 -71 -64 -117 -144 -134
-233 -33 -169 74 -367 232 -432 l54 -22 22 -92 c11 -51 26 -119 32 -152 12
-60 20 -102 38 -185 6 -25 16 -72 23 -105 25 -120 57 -159 184 -229 135 -75
149 -93 95 -121 -49 -25 -170 -145 -211 -209 -21 -32 -52 -95 -70 -139 -26
-69 -32 -100 -36 -198 -3 -64 -3 -128 1 -143 l6 -26 1285 0 1284 0 12 22 c18
34 5 229 -21 308 -56 169 -159 302 -301 392 -112 71 -175 88 -359 96 l-145 7
0 73 0 73 67 37 c204 112 380 294 487 502 60 119 85 185 106 280 29 128 24
120 102 148 130 46 223 139 262 261 47 150 10 292 -109 412 l-57 59 -7 127
c-10 178 -33 339 -67 470 -28 107 -33 101 66 73 22 -6 84 -17 138 -25 81 -10
114 -10 200 2 145 20 166 24 173 34 3 5 12 9 20 9 8 0 45 14 82 32 277 131
468 395 508 698 31 237 -46 487 -211 685 -79 95 -246 210 -370 255 -11 4 -33
13 -48 19 -15 6 -41 11 -57 11 -16 0 -32 5 -35 10 -6 10 -307 15 -317 5z m332
-89 c263 -65 479 -248 575 -486 60 -150 74 -350 35 -502 -74 -288 -296 -511
-585 -586 -57 -15 -167 -32 -206 -32 -100 0 -287 51 -387 106 -66 36 -82 39
-110 25 -9 -5 -78 -28 -152 -51 -74 -23 -143 -46 -152 -51 -29 -15 -58 -11
-58 9 0 9 21 80 46 157 87 268 85 262 68 309 -47 125 -55 169 -54 311 0 135 5
171 36 263 50 151 179 319 317 412 56 37 152 81 217 99 25 7 56 16 70 21 42
13 280 11 340 -4z m-3210 -237 c75 -25 89 -32 194 -87 15 -8 63 -49 105 -91
113 -111 181 -245 196 -386 3 -33 8 -67 11 -75 7 -26 -14 -166 -35 -230 -11
-33 -34 -87 -52 -120 l-31 -59 31 -98 c17 -54 41 -128 53 -165 12 -37 19 -71
15 -75 -7 -7 -131 28 -169 48 -10 5 -27 9 -37 9 -11 0 -23 5 -26 10 -3 6 -17
10 -30 10 -13 0 -26 4 -29 9 -14 22 -84 20 -152 -3 -109 -37 -212 -50 -297
-36 -152 24 -257 69 -358 150 -260 211 -327 571 -162 869 36 65 168 206 219
235 160 88 238 107 409 101 61 -3 126 -10 145 -16z m1464 -643 c98 -21 172
-61 241 -130 154 -156 210 -312 209 -586 -1 -202 -29 -298 -135 -455 -61 -91
-178 -198 -269 -247 -14 -7 -43 -25 -65 -39 -68 -42 -255 -129 -279 -129 -8 0
-17 -4 -20 -9 -3 -5 -16 -11 -28 -14 -13 -3 -41 -11 -63 -17 -171 -49 -278
-66 -503 -81 -164 -11 -354 -3 -497 21 -33 6 -77 13 -97 16 -69 11 -70 15 -70
271 0 286 24 449 93 623 7 19 22 29 57 39 26 8 53 18 60 24 9 7 26 6 55 -3 98
-30 233 -73 252 -80 74 -26 87 -29 112 -17 36 16 55 57 42 93 -5 16 -30 90
-54 165 l-45 136 35 77 c20 42 43 106 52 142 18 72 22 76 128 112 84 28 202
54 305 67 25 3 78 10 119 15 40 5 76 12 79 15 11 11 220 4 286 -9z m742 -299
c8 -7 -33 -145 -48 -161 -4 -6 -8 -20 -8 -31 0 -12 -3 -25 -7 -28 -14 -15 -52
-144 -53 -179 0 -63 68 -104 132 -79 13 5 43 15 68 22 25 7 49 16 55 21 5 4
17 8 27 8 10 0 26 4 36 9 39 20 161 53 176 48 9 -4 21 -19 27 -34 21 -54 57
-189 69 -258 6 -38 15 -92 20 -120 12 -65 24 -212 25 -300 0 -69 0 -70 -25
-67 -14 2 -30 8 -36 13 -5 4 -48 11 -95 14 -103 8 -155 25 -240 81 -109 72
-223 207 -310 369 l-32 60 2 149 c3 153 -5 223 -41 359 -12 42 -18 80 -15 84
23 22 254 39 273 20z m-236 -729 c0 -24 122 -189 195 -263 122 -124 249 -195
347 -195 82 0 161 -23 222 -64 24 -16 32 -17 48 -7 17 11 24 9 48 -14 60 -57
90 -156 79 -260 -14 -145 -99 -229 -287 -286 -49 -14 -72 -40 -72 -82 0 -75
-57 -250 -122 -372 -44 -83 -149 -222 -215 -285 -77 -75 -147 -130 -162 -130
-6 0 -11 -3 -11 -8 0 -7 -146 -83 -197 -103 -13 -5 -33 -13 -45 -18 -13 -5
-41 -13 -63 -19 -22 -6 -58 -15 -80 -21 -22 -5 -62 -13 -90 -16 -27 -3 -74 -8
-103 -12 -54 -6 -223 10 -297 28 -91 23 -171 52 -190 69 -11 10 -92 65 -180
124 -154 101 -162 108 -200 173 -22 38 -42 72 -44 78 -2 5 -34 59 -70 120 -36
60 -73 123 -81 139 -41 80 -121 126 -196 112 -36 -7 -85 -46 -96 -76 -4 -13
-13 -11 -52 9 -98 51 -156 147 -164 271 -4 67 -1 82 25 140 45 97 132 172 228
195 17 4 120 9 229 11 229 3 346 15 546 55 59 12 182 46 215 59 11 4 58 23
105 41 156 60 322 158 459 268 70 56 148 158 196 254 25 49 47 93 51 98 6 11
24 2 24 -13z m-1673 -1407 c15 -15 57 -79 92 -142 36 -63 81 -139 100 -171 20
-31 48 -79 63 -106 24 -44 45 -62 202 -167 97 -64 186 -131 198 -148 23 -32
23 -34 26 -444 l3 -413 -207 0 -207 0 7 112 c4 62 9 165 12 228 2 63 8 149 14
190 11 91 11 169 0 191 -5 9 -24 24 -42 33 -99 50 -215 126 -234 153 -15 23
-35 102 -68 275 -26 134 -51 259 -56 278 -4 19 -11 58 -15 87 -6 43 -4 53 12
62 33 19 70 12 100 -18z m1571 -797 c4 -61 -12 -156 -34 -210 -17 -40 -81
-125 -120 -157 -40 -34 -103 -60 -182 -77 -104 -22 -206 10 -305 94 -89 76
-137 183 -137 306 l0 61 48 -6 c26 -3 65 -11 87 -16 49 -12 348 -6 420 9 119
25 108 22 175 50 39 16 45 10 48 -54z m382 -146 c19 -5 72 -28 117 -50 66 -32
97 -55 160 -121 115 -120 168 -242 175 -402 l3 -70 -827 -3 -828 -2 0 260 c0
154 4 260 9 260 5 0 20 -15 32 -32 54 -80 139 -147 237 -189 51 -22 232 -27
279 -8 74 31 100 44 145 76 70 51 129 137 164 240 9 26 21 52 28 56 15 11 261
-1 306 -15z m-1724 -195 c-4 -54 -9 -159 -12 -233 -3 -74 -9 -153 -13 -175
l-7 -40 -122 -3 -122 -3 0 48 c0 46 18 143 39 211 14 48 68 140 108 187 38 44
110 105 126 105 6 0 7 -35 3 -97z"/>
<path d="M3915 4770 c-3 -5 -13 -10 -22 -10 -25 0 -100 -67 -128 -113 -30 -52
-43 -144 -23 -169 7 -10 27 -21 44 -24 42 -8 69 18 78 76 5 31 17 53 42 77
l35 33 130 0 c142 0 167 -8 195 -61 39 -77 -2 -163 -90 -187 -26 -6 -53 -12
-62 -12 -27 0 -73 -40 -94 -80 -18 -35 -20 -60 -20 -213 0 -161 2 -176 21
-201 15 -19 30 -26 54 -26 59 0 65 20 65 212 0 155 1 168 19 178 11 5 33 10
48 10 16 0 49 13 74 29 125 81 171 211 115 327 -36 74 -71 111 -132 139 -50
23 -67 25 -199 25 -85 0 -146 -4 -150 -10z"/>
<path d="M4021 3751 c-12 -16 -21 -34 -21 -39 0 -13 58 -72 70 -72 19 0 70 53
70 74 0 66 -81 91 -119 37z"/>
<path d="M725 4548 c-63 -35 -125 -133 -125 -199 0 -32 27 -69 50 -69 24 0 70
55 70 85 0 13 11 37 24 52 24 28 25 28 145 28 116 0 122 -1 145 -25 36 -37 42
-99 13 -141 -18 -27 -33 -36 -86 -49 -92 -22 -117 -49 -126 -130 -7 -72 -1
-265 10 -292 8 -21 38 -32 64 -23 29 9 33 30 32 167 -2 144 5 168 48 168 63 0
146 67 179 143 40 92 -12 223 -108 275 -38 20 -56 22 -178 22 -81 0 -145 -5
-157 -12z"/>
<path d="M857 3702 c-33 -36 -10 -102 35 -102 42 0 63 73 30 103 -24 22 -45
21 -65 -1z"/>
<path d="M2963 2380 c-48 -29 -67 -73 -65 -155 2 -158 45 -246 134 -276 37
-12 44 -11 86 12 64 34 87 69 87 132 -1 131 -20 224 -53 260 -44 49 -132 62
-189 27z"/>
<path d="M1817 2219 c-44 -33 -59 -73 -58 -151 2 -159 45 -250 132 -278 36
-12 44 -11 91 11 44 20 55 32 75 76 21 45 23 58 14 90 -6 21 -11 55 -11 76 0
65 -29 135 -69 167 -30 25 -44 30 -91 30 -40 -1 -63 -6 -83 -21z"/>
<path d="M2535 1619 c-38 -3 -79 -9 -90 -13 -86 -34 -112 -55 -101 -81 10 -26
34 -28 79 -8 70 33 181 49 235 34 42 -11 47 -10 66 8 19 19 19 21 2 40 -20 22
-83 29 -191 20z"/>
</g>
</svg>
