<?xml version="1.0" standalone="no"?>
<!DOCTYPE svg PUBLIC "-//W3C//DTD SVG 20010904//EN"
 "http://www.w3.org/TR/2001/REC-SVG-20010904/DTD/svg10.dtd">
<svg version="1.0" xmlns="http://www.w3.org/2000/svg"
 width="680.000000pt" height="680.000000pt" viewBox="0 0 680.000000 680.000000"
 preserveAspectRatio="xMidYMid meet">

<g transform="translate(0.000000,680.000000) scale(0.100000,-0.100000)"
fill="#000000" stroke="none">
<path d="M3269 6267 c0 -1 -3 -14 -5 -28 -4 -26 -4 -26 71 -31 41 -3 77 -7 78
-9 2 -2 0 -58 -4 -124 -4 -66 -9 -150 -11 -187 l-4 -68 27 0 c33 0 34 6 46
230 l8 145 78 3 c74 3 78 4 75 25 -3 20 -10 22 -103 29 -55 3 -135 9 -177 12
-43 3 -78 4 -79 3z"/>
<path d="M3021 6241 c-21 -6 -32 -33 -96 -226 -39 -121 -70 -223 -68 -227 2
-3 15 -3 30 1 23 6 30 17 41 57 8 27 15 50 16 52 2 1 220 32 233 32 1 0 18
-24 37 -54 30 -47 37 -53 61 -49 14 3 24 11 22 17 -12 30 -236 401 -244 402
-4 1 -19 -1 -32 -5z m77 -163 c29 -50 49 -94 45 -99 -11 -10 -173 -23 -173
-14 0 19 62 205 68 205 4 0 31 -41 60 -92z"/>
<path d="M3696 6199 c-16 -88 -56 -370 -56 -388 0 -16 6 -21 26 -21 14 0 82
-9 151 -21 68 -12 126 -20 127 -18 2 2 7 14 10 26 8 26 7 27 -142 47 -57 8
-105 16 -107 18 -1 1 2 33 7 71 12 77 3 73 133 52 92 -15 110 -11 103 21 -3
15 -20 21 -103 32 -55 7 -103 16 -106 20 -3 4 -1 35 4 69 l9 62 51 -6 c29 -3
83 -11 120 -18 66 -12 69 -12 77 9 4 11 5 24 1 28 -5 6 -144 30 -258 45 -41 5
-42 5 -47 -28z"/>
<path d="M2486 6127 c-55 -18 -101 -38 -103 -44 -4 -10 113 -400 122 -411 4
-4 220 65 252 81 76 40 98 126 47 186 -14 17 -34 31 -43 31 -27 0 -30 8 -18
45 7 25 7 46 -2 75 -23 78 -97 89 -255 37z m184 -37 c29 -29 26 -74 -6 -99
-25 -19 -140 -61 -168 -61 -15 0 -50 120 -39 131 12 11 134 47 166 48 15 1 36
-8 47 -19z m80 -180 c26 -26 26 -74 0 -98 -19 -17 -165 -72 -193 -72 -13 0
-47 89 -47 123 0 11 23 23 78 40 97 31 136 33 162 7z"/>
<path d="M4233 6103 c3 -21 9 -119 12 -218 3 -99 8 -189 10 -201 3 -11 16 -26
30 -32 25 -12 32 -6 195 160 l168 173 -26 14 c-25 13 -28 11 -160 -123 -74
-75 -138 -136 -143 -136 -5 0 -9 15 -9 33 -1 17 -5 102 -10 187 -7 129 -12
156 -26 167 -34 25 -47 16 -41 -24z"/>
<path d="M1982 5898 c-67 -40 -122 -78 -122 -83 0 -6 21 -44 46 -85 25 -41 55
-92 66 -114 11 -21 39 -69 64 -107 40 -63 46 -68 64 -57 11 7 20 17 20 22 0 5
-18 41 -40 79 -32 54 -38 72 -28 79 7 5 45 27 83 50 97 57 96 56 82 79 -6 10
-15 19 -19 19 -7 0 -96 -52 -140 -82 -15 -10 -33 -18 -40 -18 -16 0 -81 108
-74 125 2 6 46 35 97 65 52 29 96 54 97 56 8 6 -10 44 -22 44 -6 0 -67 -33
-134 -72z"/>
<path d="M4698 5864 c-86 -26 -151 -116 -151 -209 1 -130 111 -238 245 -238
154 -1 264 175 198 316 -28 60 -90 113 -154 132 -60 18 -77 18 -138 -1z m151
-64 c102 -51 132 -169 66 -256 -35 -46 -74 -64 -135 -64 -60 0 -96 17 -137 63
-118 134 46 339 206 257z"/>
<path d="M1665 5672 c-34 -16 -131 -88 -173 -129 -8 -8 -12 -19 -9 -26 3 -9
189 -239 264 -327 7 -7 38 16 41 31 1 8 -13 32 -33 54 -19 22 -35 45 -35 50 0
6 23 28 51 50 l51 39 67 -17 c36 -10 75 -17 87 -17 19 0 44 17 44 31 0 3 -36
16 -80 29 -74 21 -80 25 -73 44 15 39 8 104 -13 132 -50 68 -120 88 -189 56z
m104 -56 c30 -16 51 -54 51 -94 0 -19 -16 -42 -61 -84 -33 -32 -67 -58 -74
-58 -16 0 -125 127 -125 144 0 18 131 106 157 106 13 0 36 -6 52 -14z"/>
<path d="M5044 5473 l-138 -166 39 -35 c91 -78 184 -152 194 -152 6 0 15 8 20
19 9 16 -2 29 -79 91 -50 40 -90 75 -90 79 0 3 55 70 121 149 117 139 120 144
103 163 -9 10 -20 19 -24 19 -4 0 -69 -75 -146 -167z"/>
<path d="M5390 5435 c-10 -12 -7 -21 16 -51 16 -20 37 -47 47 -59 l17 -23
-132 -113 c-73 -61 -140 -118 -148 -126 -13 -11 -12 -16 7 -35 l22 -21 87 74
c47 41 113 96 146 124 l60 49 47 -52 c49 -55 61 -61 80 -39 8 11 -14 44 -104
150 -64 76 -119 137 -124 137 -5 0 -14 -7 -21 -15z"/>
<path d="M1333 5391 c-10 -16 1 -29 97 -115 60 -53 117 -110 125 -127 30 -57
-5 -133 -76 -164 -33 -16 -42 -16 -71 -4 -34 14 -112 74 -186 143 -61 57 -71
61 -87 39 -8 -10 -15 -21 -15 -25 0 -11 198 -181 233 -200 19 -10 55 -17 90
-18 57 0 59 1 112 54 38 38 56 64 61 90 10 55 -1 111 -28 145 -33 42 -215 201
-230 201 -7 0 -18 -8 -25 -19z"/>
<path d="M2975 5328 c-2 -7 -9 -30 -15 -50 -6 -21 -24 -47 -41 -59 -16 -11
-29 -27 -29 -34 0 -12 21 -14 126 -8 120 6 126 5 122 -13 -3 -17 -15 -20 -113
-25 -61 -3 -118 -9 -128 -14 -27 -11 -178 -241 -194 -294 -8 -28 -13 -97 -13
-187 0 -84 -4 -145 -10 -149 -5 -3 -10 -31 -10 -61 0 -46 4 -59 26 -81 24 -24
31 -25 90 -20 l64 5 24 -44 25 -44 -750 0 c-659 0 -749 -2 -749 -15 0 -13 227
-15 1985 -15 1758 0 1985 2 1985 15 0 13 -89 15 -741 15 l-741 0 26 31 c14 17
26 34 26 37 0 4 4 13 9 21 8 12 12 12 25 2 11 -9 40 -12 97 -9 75 3 83 5 106
32 22 25 24 35 18 70 -19 106 -21 136 -9 158 8 14 9 29 3 39 -5 10 -20 55 -35
101 -30 97 -84 200 -156 299 -58 80 -63 82 -242 107 -73 11 -121 22 -124 30
-5 16 49 15 193 -2 110 -14 133 -10 122 18 -20 51 -139 68 -469 67 -190 -1
-274 2 -293 11 -21 9 -28 9 -34 -1 -9 -14 -72 -18 -90 -6 -6 3 -20 24 -31 46
-20 38 -47 51 -55 27z m44 -44 c12 -19 21 -37 21 -40 0 -2 -16 -4 -35 -4 -19
0 -35 4 -35 9 0 11 21 71 25 71 2 0 12 -16 24 -36z m573 -108 c4 -6 8 -14 8
-18 0 -5 -94 -8 -209 -8 -203 0 -209 1 -204 20 4 17 16 20 82 22 124 6 315 -4
323 -16z m33 -56 c216 -11 266 -18 300 -45 18 -14 5 -15 -140 -9 -88 3 -191 7
-230 8 -38 2 -209 -1 -379 -5 -170 -5 -311 -8 -312 -6 -1 1 6 13 16 26 15 21
29 26 91 31 126 11 434 10 654 0z m-72 -67 l67 -6 0 -144 0 -144 -242 1 c-134
0 -334 -5 -446 -10 -112 -6 -208 -8 -213 -5 -37 23 75 251 135 277 17 7 79 12
150 12 l121 1 5 -105 c6 -118 16 -107 19 21 1 46 5 87 9 91 4 4 59 9 122 11
63 1 135 4 160 5 25 1 75 -1 113 -5z m411 -28 c21 -10 44 -37 68 -78 45 -76
90 -178 83 -185 -7 -7 -456 -2 -467 4 -4 3 -8 66 -8 140 l0 134 146 0 c110 0
154 -4 178 -15z m164 -297 c20 -20 15 -59 -8 -65 -16 -4 -20 -14 -20 -48 0
-40 2 -44 31 -50 31 -7 31 -8 27 -57 -7 -69 -45 -108 -107 -108 -27 0 -51 -6
-62 -16 -22 -20 -35 -13 -42 25 -13 61 -132 96 -177 51 -11 -11 -23 -34 -27
-50 -5 -29 -8 -30 -59 -30 l-54 0 0 131 c0 84 -4 128 -10 124 -6 -4 -10 -58
-10 -131 l0 -124 -219 0 -219 0 -6 83 c-18 266 -18 265 1 270 10 3 227 5 483
6 351 1 469 -2 478 -11z m-994 -15 c2 -10 6 -88 8 -173 l3 -155 -30 2 c-19 1
-36 11 -45 25 -8 13 -27 35 -42 51 -50 52 -153 25 -184 -48 -16 -40 -44 -47
-44 -12 0 31 -10 42 -45 54 -38 12 -47 46 -43 166 l3 92 100 6 c55 3 148 6
207 7 94 2 107 0 112 -15z m-150 -268 c38 -18 66 -62 66 -103 0 -68 -82 -105
-134 -61 -47 41 -49 150 -3 169 31 12 35 12 71 -5z m929 -36 c33 -41 10 -117
-44 -139 -35 -15 -94 10 -103 43 -16 61 -1 102 44 120 28 11 85 -2 103 -24z
m-415 -66 c228 -6 242 -7 242 -25 0 -10 12 -30 26 -43 l27 -25 -377 0 -376 0
25 50 25 50 84 0 c45 0 191 -3 324 -7z"/>
<path d="M2944 4989 c-68 -20 -107 -106 -65 -148 13 -13 34 -21 54 -21 49 0
149 26 158 41 5 8 9 37 9 66 0 42 -4 54 -19 63 -23 12 -94 12 -137 -1z"/>
<path d="M3250 4994 c-57 -24 -88 -111 -56 -159 16 -25 17 -25 169 -25 125 0
158 3 187 18 34 16 35 19 38 78 2 44 -1 64 -12 73 -16 13 -299 26 -326 15z"/>
<path d="M2790 4900 c0 -5 5 -10 10 -10 6 0 10 5 10 10 0 6 -4 10 -10 10 -5 0
-10 -4 -10 -10z"/>
<path d="M2780 4860 c0 -5 4 -10 9 -10 6 0 13 5 16 10 3 6 -1 10 -9 10 -9 0
-16 -4 -16 -10z"/>
<path d="M2765 4820 c-15 -7 -10 -9 23 -9 23 -1 42 4 42 9 0 12 -37 12 -65 0z"/>
<path d="M3720 4977 c-13 -7 -29 -24 -34 -38 -11 -31 -1 -93 19 -112 26 -27
248 -15 266 14 12 20 -18 102 -46 127 -22 19 -37 22 -103 22 -42 0 -88 -6
-102 -13z"/>
<path d="M3528 4703 c7 -3 16 -2 19 1 4 3 -2 6 -13 5 -11 0 -14 -3 -6 -6z"/>
<path d="M3653 4703 c9 -2 23 -2 30 0 6 3 -1 5 -18 5 -16 0 -22 -2 -12 -5z"/>
<path d="M2925 4387 c-18 -42 -10 -71 21 -86 54 -24 94 37 57 87 -30 41 -60
41 -78 -1z"/>
<path d="M3801 4391 c-16 -30 -13 -56 9 -76 17 -15 24 -16 45 -7 28 13 43 57
28 81 -16 25 -69 26 -82 2z"/>
<path d="M1002 4971 c-50 -48 -70 -87 -78 -144 -8 -56 15 -102 61 -124 49 -23
95 -7 173 62 69 60 99 73 131 56 60 -33 8 -157 -87 -205 -23 -12 -32 -22 -28
-32 3 -9 6 -18 6 -20 0 -2 11 -4 24 -4 35 0 111 73 142 136 21 43 25 63 21 97
-8 55 -52 97 -103 97 -46 0 -67 -12 -131 -71 -80 -76 -130 -84 -152 -25 -16
39 0 77 55 132 35 35 52 59 48 69 -10 26 -40 17 -82 -24z"/>
<path d="M5700 5003 c-96 -15 -284 -42 -330 -48 -73 -8 -86 -16 -70 -44 11
-21 16 -22 74 -16 l62 7 62 -97 62 -97 -31 -51 c-26 -42 -29 -54 -20 -74 6
-12 14 -23 18 -23 5 0 33 40 64 88 31 48 88 137 128 199 72 110 72 112 56 137
-17 25 -24 27 -75 19z m4 -80 c-70 -109 -108 -163 -113 -163 -8 0 -105 150
-100 154 4 4 181 32 213 35 18 1 18 0 0 -26z"/>
<path d="M843 4332 c-129 -142 -288 -327 -312 -362 -13 -19 61 49 165 153 103
103 193 187 200 187 7 0 32 -62 57 -137 60 -183 116 -336 126 -346 10 -10 -21
113 -81 318 -22 77 -47 165 -55 195 -8 30 -18 58 -22 63 -4 4 -39 -28 -78 -71z"/>
<path d="M5890 4256 c0 -2 15 -67 34 -143 61 -245 71 -343 71 -668 0 -309 -10
-405 -60 -615 -48 -196 -55 -219 -122 -395 -134 -348 -359 -689 -637 -964 -52
-52 -98 -92 -101 -89 -3 3 -1 18 5 34 19 48 122 456 117 460 -3 3 -21 -41 -41
-98 -31 -89 -56 -164 -132 -408 -7 -25 -14 -50 -14 -56 0 -12 99 10 321 70
179 49 271 78 266 83 -7 6 -164 -23 -341 -63 -127 -29 -175 -35 -155 -21 2 2
51 44 109 95 683 595 989 1551 786 2451 -32 142 -106 370 -106 327z"/>
<path d="M827 4129 c-89 -280 -111 -426 -111 -749 -1 -258 3 -304 46 -520 87
-446 313 -886 632 -1226 80 -87 274 -260 281 -252 2 2 -36 44 -86 94 -674 663
-963 1634 -763 2563 13 64 29 131 35 149 6 18 9 37 7 44 -2 6 -21 -40 -41
-103z"/>
<path d="M2117 1130 c-30 -24 -41 -63 -26 -93 7 -12 36 -45 66 -73 60 -57 67
-89 26 -110 -38 -18 -82 -4 -131 42 -25 24 -47 44 -49 44 -2 0 -3 -8 -3 -18 0
-39 105 -112 160 -112 30 0 80 53 80 85 0 18 -19 46 -65 95 -36 38 -65 74 -65
80 0 18 39 50 61 50 31 0 87 -29 109 -57 17 -22 21 -23 26 -9 8 22 -18 50 -70
76 -53 25 -86 25 -119 0z"/>
<path d="M4432 1133 c-124 -61 -124 -241 1 -304 113 -58 257 43 245 172 -6 55
-42 110 -88 134 -38 20 -116 19 -158 -2z m147 -31 c64 -32 91 -127 52 -186
-29 -43 -70 -66 -121 -66 -57 0 -88 16 -117 59 -80 119 56 260 186 193z"/>
<path d="M2447 1103 c-15 -14 -6 -23 18 -17 19 5 30 0 49 -23 20 -23 28 -26
42 -17 29 17 30 36 2 29 -17 -4 -29 0 -42 14 -19 20 -56 28 -69 14z"/>
<path d="M2456 1008 c-16 -19 -70 -79 -193 -217 -15 -17 -19 -29 -13 -35 7 -7
23 3 48 27 l39 38 84 -27 c46 -14 85 -27 87 -29 2 -2 6 -24 10 -51 4 -27 13
-49 21 -52 11 -4 13 7 7 59 -8 77 -26 209 -35 264 -8 47 -28 55 -55 23z m41
-110 c5 -46 6 -86 3 -91 -7 -9 -140 30 -140 41 0 10 110 132 120 132 4 0 12
-37 17 -82z"/>
<path d="M4080 978 c1 -22 105 -295 113 -297 4 -1 50 12 102 29 61 20 95 37
95 46 0 18 2 19 -96 -16 l-85 -30 -10 28 c-6 15 -26 70 -44 122 -18 52 -36
103 -40 113 -8 19 -35 23 -35 5z"/>
<path d="M2735 949 c-127 -40 -156 -214 -49 -295 33 -26 45 -29 110 -29 67 0
75 2 104 30 50 47 63 80 58 147 -4 47 -10 64 -34 89 -52 55 -127 78 -189 58z
m132 -49 c117 -71 61 -250 -79 -250 -133 0 -188 182 -76 250 43 26 113 26 155
0z"/>
<path d="M3978 955 c-3 -3 3 -47 14 -98 10 -51 17 -112 16 -137 -3 -38 -8 -48
-37 -67 -57 -38 -118 -28 -145 25 -11 21 -56 204 -56 227 0 3 -7 5 -15 5 -8 0
-15 -6 -15 -12 1 -30 41 -196 56 -230 22 -48 71 -73 130 -64 110 15 134 81 95
265 -16 78 -28 101 -43 86z"/>
<path d="M3142 757 c-15 -180 -15 -187 3 -187 10 0 15 10 15 28 0 67 5 71 84
69 82 -2 120 12 142 55 19 37 18 77 -5 114 -23 37 -57 50 -157 58 l-70 6 -12
-143z m186 86 c50 -31 54 -98 7 -129 -16 -11 -46 -16 -91 -15 -37 0 -68 2 -71
4 -2 3 -1 41 3 86 l7 82 61 -7 c34 -3 71 -13 84 -21z"/>
<path d="M3520 844 c-11 -26 -20 -48 -20 -50 0 -2 -20 -55 -45 -118 -25 -64
-45 -118 -45 -121 0 -3 6 -5 14 -5 8 0 22 20 31 44 19 49 36 56 151 56 l61 0
18 -40 c12 -26 25 -40 37 -40 17 0 15 8 -20 73 -21 39 -60 111 -86 160 -26 48
-53 87 -61 87 -8 0 -23 -21 -35 -46z m86 -83 l41 -80 -74 -6 c-41 -4 -77 -5
-80 -1 -6 5 4 35 48 144 5 12 12 22 16 22 5 0 27 -36 49 -79z"/>
</g>
</svg>
